<svg fill="#DF6751" version="1.1" id="Layer_1" xmlns="http://www.w3.org/2000/svg" xmlns:xlink="http://www.w3.org/1999/xlink" 
	 width="800px" height="800px" viewBox="0 0 208 256" enable-background="new 0 0 208 256" xml:space="preserve">
<path d="M35.8,2C17.53,2,2,16.72,2,35c0,0,0,184.49,0,186c0,17.87,14.42,32.19,32.08,32.9v0.1h171.74v-9.29
	c-13.23,0-23.93-10.7-23.93-23.93c0-13.22,10.7-23.92,23.93-23.92V2H35.8z M50,135.53c0-21.55,13.14-40.02,31.83-47.83
	c0.6-0.22,1.08-0.61,1.47-1.13c1.21-1.56,2.51-3.08,4.03-4.59c8.67-8.67,21.34-13.92,31.35-14.35c5.03-0.18,9.76-2.26,13.31-5.81
	l2.86-2.91c1.78-1.78,2.52-4.42,1.78-6.81c-0.3-0.99-0.43-2.08-0.3-3.16c0.35-3.6,3.25-6.55,6.85-6.94
	c4.73-0.52,8.71,3.17,8.71,7.76c0,0.91,0.57,1.35,1.26,1.35c4.6,0,8.28,3.98,7.76,8.71c-0.39,3.6-3.34,6.5-6.93,6.85
	c-1.13,0.09-2.17-0.04-3.17-0.35c-2.38-0.78-5.03,0-6.81,1.78l-2.95,2.95c-6.37,6.37-5.16,14.79-7.41,22.81
	c-2.25,8.15-6.63,15.74-12.62,21.72c-5.94,5.98-12.57,9.58-19.12,10.45c-1.91,0.26-3.25,2-2.99,3.9c0.22,1.78,1.69,3.04,3.42,3.04
	c0.13,0,0.31-0.05,0.44-0.05c8.06-1.04,16.08-5.33,23.15-12.4c6.9-6.89,12.23-16.34,14.79-26.14c12.31,9.49,20.29,24.41,20.29,41.15
	v1.86c0,8.63-6.98,15.61-15.61,15.61H65.61C56.98,153,50,146.02,50,137.39V135.53z M172.6,220.68c0,9.39,4.04,17.87,10.3,23.93H35.4
	c-13.23,0.1-24.03-10.7-24.03-23.93c0-12.52,9.79-22.81,22.11-23.72l149.72-0.31C176.74,202.71,172.6,211.19,172.6,220.68z"/>
</svg>